{
  "accessors": [
    {
      "bufferView": 2,
      "componentType": 5126,
      "count": 4,
      "max": [
        1.0,
        0.0,
        1.0
      ],
      "min": [
        -1.0,
        0.0,
        -1.0
      ],
      "type": "VEC3"
    },
    {
      "bufferView": 2,
      "byteOffset": 48,
      "componentType": 5126,
      "count": 4,
      "max": [
        0.0,
        1.0,
        -0.0
      ],
      "min": [
        0.0,
        1.0,
        -0.0
      ],
      "type": "VEC3"
    },
    {
      "bufferView": 1,
      "componentType": 5126,
      "count": 4,
      "max": [
        1.0,
        1.0
      ],
      "min": [
        0.0,
        0.0
      ],
      "type": "VEC2"
    },
    {
      "bufferView": 0,
      "componentType": 5125,
      "count": 6,
      "type": "SCALAR"
    },
    {
      "bufferView": 2,
      "byteOffset": 96,
      "componentType": 5126,
      "count": 1717,
      "max": [
        2.2555460929870605,
        0.0,
        0.15571671724319458
      ],
      "min": [
        0.020904436707496643,
        0.0,
        -0.5823378562927246
      ],
      "type": "VEC3"
    },
    {
      "bufferView": 2,
      "byteOffset": 20700,
      "componentType": 5126,
      "count": 1717,
      "max": [
        0.0,
        1.0,
        -0.0
      ],
      "min": [
        0.0,
        1.0,
        -0.0
      ],
      "type": "VEC3"
    },
    {
      "bufferView": 1,
      "byteOffset": 32,
      "componentType": 5126,
      "count": 1717,
      "max": [
        1.0,
        0.0
      ],
      "min": [
        0.0,
        0.0
      ],
      "type": "VEC2"
    },
    {
      "bufferView": 0,
      "byteOffset": 24,
      "componentType": 5125,
      "count": 5127,
      "type": "SCALAR"
    },
    {
      "bufferView": 2,
      "byteOffset": 41304,
      "componentType": 5126,
      "count": 14,
      "max": [
        1.0,
        1.0,
        1.0
      ],
      "min": [
        -1.0,
        -1.0,
        -1.0
      ],
      "type": "VEC3"
    },
    {
      "bufferView": 2,
      "byteOffset": 41472,
      "componentType": 5126,
      "count": 14,
      "max": [
        0.5773502588272095,
        0.5773502588272095,
        0.5773502588272095
      ],
      "min": [
        -0.5773502588272095,
        -0.5773502588272095,
        -0.5773502588272095
      ],
      "type": "VEC3"
    },
    {
      "bufferView": 1,
      "byteOffset": 13768,
      "componentType": 5126,
      "count": 14,
      "max": [
        0.875,
        1.0
      ],
      "min": [
        0.125,
        0.0
      ],
      "type": "VEC2"
    },
    {
      "bufferView": 0,
      "byteOffset": 20532,
      "componentType": 5125,
      "count": 36,
      "type": "SCALAR"
    },
    {
      "bufferView": 2,
      "byteOffset": 41640,
      "componentType": 5126,
      "count": 130,
      "max": [
        1.0,
        1.0,
        1.0
      ],
      "min": [
        -1.0,
        -1.0,
        -1.0
      ],
      "type": "VEC3"
    },
    {
      "bufferView": 2,
      "byteOffset": 43200,
      "componentType": 5126,
      "count": 130,
      "max": [
        0.7278876900672913,
        0.6856964826583862,
        0.7278876900672913
      ],
      "min": [
        -0.7278876900672913,
        -0.685696542263031,
        -0.7278876900672913
      ],
      "type": "VEC3"
    },
    {
      "bufferView": 1,
      "byteOffset": 13880,
      "componentType": 5126,
      "count": 130,
      "max": [
        1.0,
        1.0
      ],
      "min": [
        0.0,
        0.01000000536441803
      ],
      "type": "VEC2"
    },
    {
      "bufferView": 0,
      "byteOffset": 20676,
      "componentType": 5125,
      "count": 372,
      "type": "SCALAR"
    },
    {
      "bufferView": 2,
      "byteOffset": 44760,
      "componentType": 5126,
      "count": 4,
      "max": [
        0.12091562151908875,
        0.0,
        -0.0
      ],
      "min": [
        0.0,
        0.0,
        -0.09024304151535034
      ],
      "type": "VEC3"
    },
    {
      "bufferView": 2,
      "byteOffset": 44808,
      "componentType": 5126,
      "count": 4,
      "max": [
        0.0,
        1.0,
        -0.0
      ],
      "min": [
        0.0,
        1.0,
        -0.0
      ],
      "type": "VEC3"
    },
    {
      "bufferView": 1,
      "byteOffset": 14920,
      "componentType": 5126,
      "count": 4,
      "max": [
        1.0,
        0.0
      ],
      "min": [
        0.0,
        0.0
      ],
      "type": "VEC2"
    },
    {
      "bufferView": 0,
      "byteOffset": 22164,
      "componentType": 5125,
      "count": 6,
      "type": "SCALAR"
    },
    {
      "bufferView": 2,
      "byteOffset": 44856,
      "componentType": 5126,
      "count": 48,
      "max": [
        0.04422970861196518,
        0.0,
        -0.04393595829606056
      ],
      "min": [
        0.019393643364310265,
        0.0,
        -0.06806135177612305
      ],
      "type": "VEC3"
    },
    {
      "bufferView": 2,
      "byteOffset": 45432,
      "componentType": 5126,
      "count": 48,
      "max": [
        0.0,
        1.0,
        -0.0
      ],
      "min": [
        0.0,
        1.0,
        -0.0
      ],
      "type": "VEC3"
    },
    {
      "bufferView": 1,
      "byteOffset": 14952,
      "componentType": 5126,
      "count": 48,
      "max": [
        1.0,
        0.0
      ],
      "min": [
        0.0,
        0.0
      ],
      "type": "VEC2"
    },
    {
      "bufferView": 0,
      "byteOffset": 22188,
      "componentType": 5125,
      "count": 138,
      "type": "SCALAR"
    },
    {
      "bufferView": 2,
      "byteOffset": 46008,
      "componentType": 5126,
      "count": 48,
      "max": [
        0.040000900626182556,
        0.0,
        -0.047739818692207336
      ],
      "min": [
        0.023532988503575325,
        0.0,
        -0.0640973448753357
      ],
      "type": "VEC3"
    },
    {
      "bufferView": 2,
      "byteOffset": 46584,
      "componentType": 5126,
      "count": 48,
      "max": [
        0.0,
        1.0,
        -0.0
      ],
      "min": [
        0.0,
        1.0,
        -0.0
      ],
      "type": "VEC3"
    },
    {
      "bufferView": 1,
      "byteOffset": 15336,
      "componentType": 5126,
      "count": 48,
      "max": [
        1.0,
        0.0
      ],
      "min": [
        0.0,
        0.0
      ],
      "type": "VEC2"
    },
    {
      "bufferView": 0,
      "byteOffset": 22740,
      "componentType": 5125,
      "count": 138,
      "type": "SCALAR"
    },
    {
      "bufferView": 2,
      "byteOffset": 47160,
      "componentType": 5126,
      "count": 324,
      "max": [
        0.08805373311042786,
        0.0,
        -0.031427934765815735
      ],
      "min": [
        0.03387278690934181,
        0.0,
        -0.03570953756570816
      ],
      "type": "VEC3"
    },
    {
      "bufferView": 2,
      "byteOffset": 51048,
      "componentType": 5126,
      "count": 324,
      "max": [
        0.0,
        1.0,
        -0.0
      ],
      "min": [
        0.0,
        1.0,
        -0.0
      ],
      "type": "VEC3"
    },
    {
      "bufferView": 1,
      "byteOffset": 15720,
      "componentType": 5126,
      "count": 324,
      "max": [
        1.0,
        0.0
      ],
      "min": [
        0.0,
        0.0
      ],
      "type": "VEC2"
    },
    {
      "bufferView": 0,
      "byteOffset": 23292,
      "componentType": 5125,
      "count": 966,
      "type": "SCALAR"
    },
    {
      "bufferView": 2,
      "byteOffset": 54936,
      "componentType": 5126,
      "count": 263,
      "max": [
        0.1169034093618393,
        0.0,
        -0.002575412392616272
      ],
      "min": [
        0.004012215416878462,
        0.0,
        -0.08762999624013901
      ],
      "type": "VEC3"
    },
    {
      "bufferView": 2,
      "byteOffset": 58092,
      "componentType": 5126,
      "count": 263,
      "max": [
        0.0,
        1.0,
        -0.0
      ],
      "min": [
        0.0,
        -1.0,
        -0.0
      ],
      "type": "VEC3"
    },
    {
      "bufferView": 1,
      "byteOffset": 18312,
      "componentType": 5126,
      "count": 263,
      "max": [
        1.0,
        0.0
      ],
      "min": [
        0.0,
        0.0
      ],
      "type": "VEC2"
    },
    {
      "bufferView": 0,
      "byteOffset": 27156,
      "componentType": 5125,
      "count": 774,
      "type": "SCALAR"
    },
    {
      "bufferView": 2,
      "byteOffset": 61248,
      "componentType": 5126,
      "count": 48,
      "max": [
        0.040000900626182556,
        0.0,
        -0.047739818692207336
      ],
      "min": [
        0.023532988503575325,
        0.0,
        -0.0640973448753357
      ],
      "type": "VEC3"
    },
    {
      "bufferView": 2,
      "byteOffset": 61824,
      "componentType": 5126,
      "count": 48,
      "max": [
        0.0,
        1.0,
        -0.0
      ],
      "min": [
        0.0,
        1.0,
        -0.0
      ],
      "type": "VEC3"
    },
    {
      "bufferView": 1,
      "byteOffset": 20416,
      "componentType": 5126,
      "count": 48,
      "max": [
        1.0,
        0.0
      ],
      "min": [
        0.0,
        0.0
      ],
      "type": "VEC2"
    },
    {
      "bufferView": 0,
      "byteOffset": 30252,
      "componentType": 5125,
      "count": 138,
      "type": "SCALAR"
    },
    {
      "bufferView": 2,
      "byteOffset": 62400,
      "componentType": 5126,
      "count": 48,
      "max": [
        0.040000900626182556,
        0.0,
        -0.047739818692207336
      ],
      "min": [
        0.023532988503575325,
        0.0,
        -0.0640973448753357
      ],
      "type": "VEC3"
    },
    {
      "bufferView": 2,
      "byteOffset": 62976,
      "componentType": 5126,
      "count": 48,
      "max": [
        0.0,
        1.0,
        -0.0
      ],
      "min": [
        0.0,
        1.0,
        -0.0
      ],
      "type": "VEC3"
    },
    {
      "bufferView": 1,
      "byteOffset": 20800,
      "componentType": 5126,
      "count": 48,
      "max": [
        1.0,
        0.0
      ],
      "min": [
        0.0,
        0.0
      ],
      "type": "VEC2"
    },
    {
      "bufferView": 0,
      "byteOffset": 30804,
      "componentType": 5125,
      "count": 138,
      "type": "SCALAR"
    },
    {
      "bufferView": 2,
      "byteOffset": 63552,
      "componentType": 5126,
      "count": 48,
      "max": [
        0.04422970861196518,
        0.0,
        -0.04393595829606056
      ],
      "min": [
        0.019393643364310265,
        0.0,
        -0.06806135177612305
      ],
      "type": "VEC3"
    },
    {
      "bufferView": 2,
      "byteOffset": 64128,
      "componentType": 5126,
      "count": 48,
      "max": [
        0.0,
        1.0,
        -0.0
      ],
      "min": [
        0.0,
        1.0,
        -0.0
      ],
      "type": "VEC3"
    },
    {
      "bufferView": 1,
      "byteOffset": 21184,
      "componentType": 5126,
      "count": 48,
      "max": [
        1.0,
        0.0
      ],
      "min": [
        0.0,
        0.0
      ],
      "type": "VEC2"
    },
    {
      "bufferView": 0,
      "byteOffset": 31356,
      "componentType": 5125,
      "count": 138,
      "type": "SCALAR"
    },
    {
      "bufferView": 2,
      "byteOffset": 64704,
      "componentType": 5126,
      "count": 1254,
      "max": [
        0.08086482435464859,
        0.0,
        -0.04492289572954178
      ],
      "min": [
        0.00791774783283472,
        0.0,
        -0.06906958669424057
      ],
      "type": "VEC3"
    },
    {
      "bufferView": 2,
      "byteOffset": 79752,
      "componentType": 5126,
      "count": 1254,
      "max": [
        0.0,
        1.0,
        -0.0
      ],
      "min": [
        0.0,
        1.0,
        -0.0
      ],
      "type": "VEC3"
    },
    {
      "bufferView": 1,
      "byteOffset": 21568,
      "componentType": 5126,
      "count": 1254,
      "max": [
        1.0,
        0.0
      ],
      "min": [
        0.0,
        0.0
      ],
      "type": "VEC2"
    },
    {
      "bufferView": 0,
      "byteOffset": 31908,
      "componentType": 5125,
      "count": 3732,
      "type": "SCALAR"
    },
    {
      "bufferView": 2,
      "byteOffset": 94800,
      "componentType": 5126,
      "count": 3933,
      "max": [
        0.08088654279708862,
        0.0,
        -0.05917324870824814
      ],
      "min": [
        0.00758596183732152,
        0.0,
        -0.09932327270507813
      ],
      "type": "VEC3"
    },
    {
      "bufferView": 2,
      "byteOffset": 141996,
      "componentType": 5126,
      "count": 3933,
      "max": [
        0.0,
        1.0,
        -0.0
      ],
      "min": [
        0.0,
        -1.0,
        -0.0
      ],
      "type": "VEC3"
    },
    {
      "bufferView": 1,
      "byteOffset": 31600,
      "componentType": 5126,
      "count": 3933,
      "max": [
        1.0,
        0.0
      ],
      "min": [
        0.0,
        0.0
      ],
      "type": "VEC2"
    },
    {
      "bufferView": 0,
      "byteOffset": 46836,
      "componentType": 5125,
      "count": 11694,
      "type": "SCALAR"
    },
    {
      "bufferView": 2,
      "byteOffset": 189192,
      "componentType": 5126,
      "count": 272,
      "max": [
        0.08150744438171387,
        0.0,
        -0.011625342071056366
      ],
      "min": [
        0.007931330241262913,
        0.0,
        -0.052370455116033554
      ],
      "type": "VEC3"
    },
    {
      "bufferView": 2,
      "byteOffset": 192456,
      "componentType": 5126,
      "count": 272,
      "max": [
        0.0,
        1.0,
        -0.0
      ],
      "min": [
        0.0,
        1.0,
        -0.0
      ],
      "type": "VEC3"
    },
    {
      "bufferView": 1,
      "byteOffset": 63064,
      "componentType": 5126,
      "count": 272,
      "max": [
        1.0,
        0.0
      ],
      "min": [
        0.0,
        0.0
      ],
      "type": "VEC2"
    },
    {
      "bufferView": 0,
      "byteOffset": 93612,
      "componentType": 5125,
      "count": 798,
      "type": "SCALAR"
    },
    {
      "bufferView": 2,
      "byteOffset": 195720,
      "componentType": 5126,
      "count": 1281,
      "max": [
        0.10267454385757446,
        0.0,
        -0.0026202246081084013
      ],
      "min": [
        0.007379662245512009,
        0.0,
        -0.0999721810221672
      ],
      "type": "VEC3"
    },
    {
      "bufferView": 2,
      "byteOffset": 211092,
      "componentType": 5126,
      "count": 1281,
      "max": [
        0.0,
        1.0,
        -0.0
      ],
      "min": [
        0.0,
        1.0,
        -0.0
      ],
      "type": "VEC3"
    },
    {
      "bufferView": 1,
      "byteOffset": 65240,
      "componentType": 5126,
      "count": 1281,
      "max": [
        1.0,
        0.0
      ],
      "min": [
        0.0,
        0.0
      ],
      "type": "VEC2"
    },
    {
      "bufferView": 0,
      "byteOffset": 96804,
      "componentType": 5125,
      "count": 3693,
      "type": "SCALAR"
    },
    {
      "bufferView": 2,
      "byteOffset": 226464,
      "componentType": 5126,
      "count": 1144,
      "max": [
        0.08139455318450928,
        0.0,
        -0.011568903923034668
      ],
      "min": [
        0.007674309890717268,
        0.0,
        -0.11140922456979752
      ],
      "type": "VEC3"
    },
    {
      "bufferView": 2,
      "byteOffset": 240192,
      "componentType": 5126,
      "count": 1144,
      "max": [
        0.0,
        1.0,
        -0.0
      ],
      "min": [
        0.0,
        1.0,
        -0.0
      ],
      "type": "VEC3"
    },
    {
      "bufferView": 1,
      "byteOffset": 75488,
      "componentType": 5126,
      "count": 1144,
      "max": [
        1.0,
        0.0
      ],
      "min": [
        0.0,
        0.0
      ],
      "type": "VEC2"
    },
    {
      "bufferView": 0,
      "byteOffset": 111576,
      "componentType": 5125,
      "count": 3264,
      "type": "SCALAR"
    },
    {
      "bufferView": 2,
      "byteOffset": 253920,
      "componentType": 5126,
      "count": 2212,
      "max": [
        0.08128472417593002,
        0.0,
        -0.019751787185668945
      ],
      "min": [
        0.007902383804321289,
        0.0,
        -0.1109486073255539
      ],
      "type": "VEC3"
    },
    {
      "bufferView": 2,
      "byteOffset": 280464,
      "componentType": 5126,
      "count": 2212,
      "max": [
        0.0,
        1.0,
        -0.0
      ],
      "min": [
        0.0,
        1.0,
        -0.0
      ],
      "type": "VEC3"
    },
    {
      "bufferView": 1,
      "byteOffset": 84640,
      "componentType": 5126,
      "count": 2212,
      "max": [
        1.0,
        0.0
      ],
      "min": [
        0.0,
        0.0
      ],
      "type": "VEC2"
    },
    {
      "bufferView": 0,
      "byteOffset": 124632,
      "componentType": 5125,
      "count": 6594,
      "type": "SCALAR"
    },
    {
      "bufferView": 2,
      "byteOffset": 307008,
      "componentType": 5126,
      "count": 48,
      "max": [
        0.040000900626182556,
        0.0,
        -0.047739818692207336
      ],
      "min": [
        0.023532988503575325,
        0.0,
        -0.0640973448753357
      ],
      "type": "VEC3"
    },
    {
      "bufferView": 2,
      "byteOffset": 307584,
      "componentType": 5126,
      "count": 48,
      "max": [
        0.0,
        1.0,
        -0.0
      ],
      "min": [
        0.0,
        1.0,
        -0.0
      ],
      "type": "VEC3"
    },
    {
      "bufferView": 1,
      "byteOffset": 102336,
      "componentType": 5126,
      "count": 48,
      "max": [
        1.0,
        0.0
      ],
      "min": [
        0.0,
        0.0
      ],
      "type": "VEC2"
    },
    {
      "bufferView": 0,
      "byteOffset": 151008,
      "componentType": 5125,
      "count": 138,
      "type": "SCALAR"
    },
    {
      "bufferView": 2,
      "byteOffset": 308160,
      "componentType": 5126,
      "count": 4579,
      "max": [
        245.00038146972656,
        274.7495422363281,
        341.8607482910156
      ],
      "min": [
        -1.1909700333490036e-05,
        -2.598080072857556e-06,
        -1.63156000780873e-05
      ],
      "type": "VEC3"
    },
    {
      "bufferView": 2,
      "byteOffset": 363108,
      "componentType": 5126,
      "count": 4579,
      "max": [
        1.0,
        1.0,
        1.0
      ],
      "min": [
        -1.0,
        -1.0,
        -1.0
      ],
      "type": "VEC3"
    },
    {
      "bufferView": 1,
      "byteOffset": 102720,
      "componentType": 5126,
      "count": 4579,
      "max": [
        127.97988891601563,
        140.75552368164063
      ],
      "min": [
        -127.9800033569336,
        -118.94400024414063
      ],
      "type": "VEC2"
    },
    {
      "bufferView": 0,
      "byteOffset": 151560,
      "componentType": 5125,
      "count": 8769,
      "type": "SCALAR"
    },
    {
      "bufferView": 2,
      "byteOffset": 418056,
      "componentType": 5126,
      "count": 52,
      "max": [
        219.3832244873047,
        14.572358131408691,
        111.5680160522461
      ],
      "min": [
        122.4990005493164,
        8.291239738464355,
        104.10363006591797
      ],
      "type": "VEC3"
    },
    {
      "bufferView": 2,
      "byteOffset": 418680,
      "componentType": 5126,
      "count": 52,
      "max": [
        0.12248297035694122,
        -0.9883875846862793,
        0.09003805369138718
      ],
      "min": [
        0.013570859096944332,
        -0.9961932897567749,
        0.08070037513971329
      ],
      "type": "VEC3"
    },
    {
      "bufferView": 1,
      "byteOffset": 139352,
      "componentType": 5126,
      "count": 52,
      "max": [
        86.34307098388672,
        44.00616455078125
      ],
      "min": [
        48.2682991027832,
        40.41889953613281
      ],
      "type": "VEC2"
    },
    {
      "bufferView": 0,
      "byteOffset": 186636,
      "componentType": 5125,
      "count": 96,
      "type": "SCALAR"
    },
    {
      "bufferView": 2,
      "byteOffset": 419304,
      "componentType": 5126,
      "count": 2212,
      "max": [
        0.08128472417593002,
        0.0,
        -0.019751787185668945
      ],
      "min": [
        0.007902383804321289,
        0.0,
        -0.1109486073255539
      ],
      "type": "VEC3"
    },
    {
      "bufferView": 2,
      "byteOffset": 445848,
      "componentType": 5126,
      "count": 2212,
      "max": [
        0.0,
        1.0,
        -0.0
      ],
      "min": [
        0.0,
        1.0,
        -0.0
      ],
      "type": "VEC3"
    },
    {
      "bufferView": 1,
      "byteOffset": 139768,
      "componentType": 5126,
      "count": 2212,
      "max": [
        1.0,
        0.0
      ],
      "min": [
        0.0,
        0.0
      ],
      "type": "VEC2"
    },
    {
      "bufferView": 0,
      "byteOffset": 187020,
      "componentType": 5125,
      "count": 6594,
      "type": "SCALAR"
    },
    {
      "bufferView": 2,
      "byteOffset": 472392,
      "componentType": 5126,
      "count": 1144,
      "max": [
        0.08139455318450928,
        0.0,
        -0.011568903923034668
      ],
      "min": [
        0.007674309890717268,
        0.0,
        -0.11140922456979752
      ],
      "type": "VEC3"
    },
    {
      "bufferView": 2,
      "byteOffset": 486120,
      "componentType": 5126,
      "count": 1144,
      "max": [
        0.0,
        1.0,
        -0.0
      ],
      "min": [
        0.0,
        1.0,
        -0.0
      ],
      "type": "VEC3"
    },
    {
      "bufferView": 1,
      "byteOffset": 157464,
      "componentType": 5126,
      "count": 1144,
      "max": [
        1.0,
        0.0
      ],
      "min": [
        0.0,
        0.0
      ],
      "type": "VEC2"
    },
    {
      "bufferView": 0,
      "byteOffset": 213396,
      "componentType": 5125,
      "count": 3264,
      "type": "SCALAR"
    },
    {
      "bufferView": 2,
      "byteOffset": 499848,
      "componentType": 5126,
      "count": 1281,
      "max": [
        0.10267454385757446,
        0.0,
        -0.0026202246081084013
      ],
      "min": [
        0.007379662245512009,
        0.0,
        -0.0999721810221672
      ],
      "type": "VEC3"
    },
    {
      "bufferView": 2,
      "byteOffset": 515220,
      "componentType": 5126,
      "count": 1281,
      "max": [
        0.0,
        1.0,
        -0.0
      ],
      "min": [
        0.0,
        1.0,
        -0.0
      ],
      "type": "VEC3"
    },
    {
      "bufferView": 1,
      "byteOffset": 166616,
      "componentType": 5126,
      "count": 1281,
      "max": [
        1.0,
        0.0
      ],
      "min": [
        0.0,
        0.0
      ],
      "type": "VEC2"
    },
    {
      "bufferView": 0,
      "byteOffset": 226452,
      "componentType": 5125,
      "count": 3693,
      "type": "SCALAR"
    },
    {
      "bufferView": 2,
      "byteOffset": 530592,
      "componentType": 5126,
      "count": 272,
      "max": [
        0.08150744438171387,
        0.0,
        -0.011625342071056366
      ],
      "min": [
        0.007931330241262913,
        0.0,
        -0.052370455116033554
      ],
      "type": "VEC3"
    },
    {
      "bufferView": 2,
      "byteOffset": 533856,
      "componentType": 5126,
      "count": 272,
      "max": [
        0.0,
        1.0,
        -0.0
      ],
      "min": [
        0.0,
        1.0,
        -0.0
      ],
      "type": "VEC3"
    },
    {
      "bufferView": 1,
      "byteOffset": 176864,
      "componentType": 5126,
      "count": 272,
      "max": [
        1.0,
        0.0
      ],
      "min": [
        0.0,
        0.0
      ],
      "type": "VEC2"
    },
    {
      "bufferView": 0,
      "byteOffset": 241224,
      "componentType": 5125,
      "count": 798,
      "type": "SCALAR"
    },
    {
      "bufferView": 2,
      "byteOffset": 537120,
      "componentType": 5126,
      "count": 3933,
      "max": [
        0.08088654279708862,
        0.0,
        -0.05917324870824814
      ],
      "min": [
        0.00758596183732152,
        0.0,
        -0.09932327270507813
      ],
      "type": "VEC3"
    },
    {
      "bufferView": 2,
      "byteOffset": 584316,
      "componentType": 5126,
      "count": 3933,
      "max": [
        0.0,
        1.0,
        -0.0
      ],
      "min": [
        0.0,
        -1.0,
        -0.0
      ],
      "type": "VEC3"
    },
    {
      "bufferView": 1,
      "byteOffset": 179040,
      "componentType": 5126,
      "count": 3933,
      "max": [
        1.0,
        0.0
      ],
      "min": [
        0.0,
        0.0
      ],
      "type": "VEC2"
    },
    {
      "bufferView": 0,
      "byteOffset": 244416,
      "componentType": 5125,
      "count": 11694,
      "type": "SCALAR"
    },
    {
      "bufferView": 2,
      "byteOffset": 631512,
      "componentType": 5126,
      "count": 1254,
      "max": [
        0.08086482435464859,
        0.0,
        -0.04492289572954178
      ],
      "min": [
        0.00791774783283472,
        0.0,
        -0.06906958669424057
      ],
      "type": "VEC3"
    },
    {
      "bufferView": 2,
      "byteOffset": 646560,
      "componentType": 5126,
      "count": 1254,
      "max": [
        0.0,
        1.0,
        -0.0
      ],
      "min": [
        0.0,
        1.0,
        -0.0
      ],
      "type": "VEC3"
    },
    {
      "bufferView": 1,
      "byteOffset": 210504,
      "componentType": 5126,
      "count": 1254,
      "max": [
        1.0,
        0.0
      ],
      "min": [
        0.0,
        0.0
      ],
      "type": "VEC2"
    },
    {
      "bufferView": 0,
      "byteOffset": 291192,
      "componentType": 5125,
      "count": 3732,
      "type": "SCALAR"
    }
  ],
  "asset": {
    "extras": {
      "author": "The Fan of The Macintosh Librarian and Bimo AI (https://sketchfab.com/maccythecompmacintoshlibrarfan)",
      "license": "CC-BY-4.0 (http://creativecommons.org/licenses/by/4.0/)",
      "source": "https://sketchfab.com/3d-models/maccy-vtuber-model-macintosh-librarian-2022-63e70151af8b4f06a3b8290430f7cba2",
      "title": "Maccy VTuber Model (Macintosh Librarian 2022)"
    },
    "generator": "Sketchfab-16.75.0",
    "version": "2.0"
  },
  "bufferViews": [
    {
      "buffer": 0,
      "byteLength": 306120,
      "name": "floatBufferViews",
      "target": 34963
    },
    {
      "buffer": 0,
      "byteLength": 220536,
      "byteOffset": 306120,
      "byteStride": 8,
      "name": "floatBufferViews",
      "target": 34962
    },
    {
      "buffer": 0,
      "byteLength": 661608,
      "byteOffset": 526656,
      "byteStride": 12,
      "name": "floatBufferViews",
      "target": 34962
    }
  ],
  "buffers": [
    {
      "byteLength": 1188264,
      "uri": "scene.bin"
    }
  ],
  "images": [
    {
      "uri": "textures/Material.002_baseColor.png"
    }
  ],
  "materials": [
    {
      "doubleSided": true,
      "name": "Material.002",
      "pbrMetallicRoughness": {
        "baseColorTexture": {
          "index": 0
        },
        "metallicFactor": 0.0,
        "roughnessFactor": 0.5
      }
    },
    {
      "doubleSided": true,
      "name": "Material",
      "pbrMetallicRoughness": {
        "baseColorFactor": [
          0.0,
          0.0,
          0.0,
          1.0
        ],
        "metallicFactor": 0.0,
        "roughnessFactor": 0.5
      }
    },
    {
      "doubleSided": true,
      "name": "Material.005",
      "pbrMetallicRoughness": {
        "baseColorFactor": [
          0.8,
          0.8,
          0.8,
          1.0
        ],
        "metallicFactor": 0.0,
        "roughnessFactor": 0.5
      }
    },
    {
      "doubleSided": true,
      "name": "Material.001",
      "pbrMetallicRoughness": {
        "baseColorFactor": [
          0.0,
          1.0,
          0.014139134381343923,
          1.0
        ],
        "metallicFactor": 0.0,
        "roughnessFactor": 0.5
      }
    },
    {
      "doubleSided": true,
      "name": "SVGMat.002",
      "pbrMetallicRoughness": {
        "baseColorFactor": [
          0.0,
          0.0,
          0.0,
          1.0
        ],
        "metallicFactor": 0.0,
        "roughnessFactor": 0.5
      }
    },
    {
      "doubleSided": true,
      "name": "SVGMat.004",
      "pbrMetallicRoughness": {
        "baseColorFactor": [
          0.8,
          0.8,
          0.8,
          1.0
        ],
        "metallicFactor": 0.0,
        "roughnessFactor": 0.5
      }
    },
    {
      "doubleSided": true,
      "name": "SVGMat.006",
      "pbrMetallicRoughness": {
        "baseColorFactor": [
          0.0,
          0.0,
          0.0,
          1.0
        ],
        "metallicFactor": 0.0,
        "roughnessFactor": 0.5
      }
    },
    {
      "doubleSided": true,
      "name": "SVGMat.012",
      "pbrMetallicRoughness": {
        "baseColorFactor": [
          0.0,
          0.0,
          0.0,
          1.0
        ],
        "metallicFactor": 0.0,
        "roughnessFactor": 0.5
      }
    },
    {
      "doubleSided": true,
      "name": "SVGMat.015",
      "pbrMetallicRoughness": {
        "baseColorFactor": [
          0.0,
          0.0,
          0.0,
          1.0
        ],
        "metallicFactor": 0.0,
        "roughnessFactor": 0.5
      }
    },
    {
      "doubleSided": true,
      "name": "SVGMat.016",
      "pbrMetallicRoughness": {
        "baseColorFactor": [
          0.0,
          0.0,
          0.0,
          1.0
        ],
        "metallicFactor": 0.0,
        "roughnessFactor": 0.5
      }
    },
    {
      "doubleSided": true,
      "name": "SVGMat.019",
      "pbrMetallicRoughness": {
        "baseColorFactor": [
          0.0,
          0.0,
          0.0,
          1.0
        ],
        "metallicFactor": 0.0,
        "roughnessFactor": 0.5
      }
    },
    {
      "doubleSided": true,
      "name": "SVGMat.020",
      "pbrMetallicRoughness": {
        "baseColorFactor": [
          0.8,
          0.8,
          0.8,
          1.0
        ],
        "metallicFactor": 0.0,
        "roughnessFactor": 0.5
      }
    },
    {
      "doubleSided": true,
      "name": "SVGMat.022",
      "pbrMetallicRoughness": {
        "baseColorFactor": [
          1.0,
          0.3002697828669517,
          0.0,
          1.0
        ],
        "metallicFactor": 0.0,
        "roughnessFactor": 0.5
      }
    },
    {
      "doubleSided": true,
      "name": "SVGMat.023",
      "pbrMetallicRoughness": {
        "baseColorFactor": [
          1.0,
          0.6343717104653256,
          0.03564081245896186,
          1.0
        ],
        "metallicFactor": 0.0,
        "roughnessFactor": 0.5
      }
    },
    {
      "doubleSided": true,
      "name": "SVGMat.024",
      "pbrMetallicRoughness": {
        "baseColorFactor": [
          0.783914465286133,
          0.023719296250327395,
          0.023719296250327395,
          1.0
        ],
        "metallicFactor": 0.0,
        "roughnessFactor": 0.5
      }
    },
    {
      "doubleSided": true,
      "name": "SVGMat.025",
      "pbrMetallicRoughness": {
        "baseColorFactor": [
          0.03564081245896186,
          0.5188993805758277,
          1.0,
          1.0
        ],
        "metallicFactor": 0.0,
        "roughnessFactor": 0.5
      }
    },
    {
      "doubleSided": true,
      "name": "SVGMat.026",
      "pbrMetallicRoughness": {
        "baseColorFactor": [
          0.38621753309143086,
          0.011505442451662597,
          0.48540884404178286,
          1.0
        ],
        "metallicFactor": 0.0,
        "roughnessFactor": 0.5
      }
    },
    {
      "doubleSided": true,
      "name": "SVGMat.027",
      "pbrMetallicRoughness": {
        "baseColorFactor": [
          0.22815889791104138,
          0.715855893155135,
          0.011127137592384958,
          1.0
        ],
        "metallicFactor": 0.0,
        "roughnessFactor": 0.5
      }
    },
    {
      "doubleSided": true,
      "name": "SVGMat.029",
      "pbrMetallicRoughness": {
        "baseColorFactor": [
          0.0,
          0.0,
          0.0,
          1.0
        ],
        "metallicFactor": 0.0,
        "roughnessFactor": 0.5
      }
    },
    {
      "doubleSided": true,
      "name": "Material.003",
      "pbrMetallicRoughness": {
        "baseColorFactor": [
          0.8834365490119371,
          0.8307138331092125,
          0.7321615983483332,
          1.0
        ],
        "metallicFactor": 0.0,
        "roughnessFactor": 0.5
      }
    },
    {
      "doubleSided": true,
      "name": "Material.004",
      "pbrMetallicRoughness": {
        "baseColorFactor": [
          0.0,
          0.0,
          0.0,
          1.0
        ],
        "metallicFactor": 0.0,
        "roughnessFactor": 0.5
      }
    },
    {
      "doubleSided": true,
      "name": "SVGMat.001",
      "pbrMetallicRoughness": {
        "baseColorFactor": [
          0.0,
          0.0,
          0.0,
          1.0
        ],
        "metallicFactor": 0.0,
        "roughnessFactor": 0.5
      }
    },
    {
      "doubleSided": true,
      "name": "SVGMat.003",
      "pbrMetallicRoughness": {
        "baseColorFactor": [
          0.0,
          0.0,
          0.0,
          1.0
        ],
        "metallicFactor": 0.0,
        "roughnessFactor": 0.5
      }
    },
    {
      "doubleSided": true,
      "name": "SVGMat.005",
      "pbrMetallicRoughness": {
        "baseColorFactor": [
          0.0,
          0.0,
          0.0,
          1.0
        ],
        "metallicFactor": 0.0,
        "roughnessFactor": 0.5
      }
    },
    {
      "doubleSided": true,
      "name": "SVGMat.014",
      "pbrMetallicRoughness": {
        "baseColorFactor": [
          0.0,
          0.0,
          0.0,
          1.0
        ],
        "metallicFactor": 0.0,
        "roughnessFactor": 0.5
      }
    },
    {
      "doubleSided": true,
      "name": "SVGMat.017",
      "pbrMetallicRoughness": {
        "baseColorFactor": [
          0.0,
          0.0,
          0.0,
          1.0
        ],
        "metallicFactor": 0.0,
        "roughnessFactor": 0.5
      }
    },
    {
      "doubleSided": true,
      "name": "SVGMat.018",
      "pbrMetallicRoughness": {
        "baseColorFactor": [
          0.0,
          0.0,
          0.0,
          1.0
        ],
        "metallicFactor": 0.0,
        "roughnessFactor": 0.5
      }
    }
  ],
  "meshes": [
    {
      "name": "Object_0",
      "primitives": [
        {
          "attributes": {
            "NORMAL": 1,
            "POSITION": 0,
            "TEXCOORD_0": 2
          },
          "indices": 3,
          "material": 0,
          "mode": 4
        }
      ]
    },
    {
      "name": "Object_1",
      "primitives": [
        {
          "attributes": {
            "NORMAL": 5,
            "POSITION": 4,
            "TEXCOORD_0": 6
          },
          "indices": 7,
          "material": 1,
          "mode": 4
        }
      ]
    },
    {
      "name": "Object_2",
      "primitives": [
        {
          "attributes": {
            "NORMAL": 9,
            "POSITION": 8,
            "TEXCOORD_0": 10
          },
          "indices": 11,
          "material": 2,
          "mode": 4
        }
      ]
    },
    {
      "name": "Object_3",
      "primitives": [
        {
          "attributes": {
            "NORMAL": 13,
            "POSITION": 12,
            "TEXCOORD_0": 14
          },
          "indices": 15,
          "material": 3,
          "mode": 4
        }
      ]
    },
    {
      "name": "Object_4",
      "primitives": [
        {
          "attributes": {
            "NORMAL": 17,
            "POSITION": 16,
            "TEXCOORD_0": 18
          },
          "indices": 19,
          "material": 4,
          "mode": 4
        }
      ]
    },
    {
      "name": "Object_5",
      "primitives": [
        {
          "attributes": {
            "NORMAL": 21,
            "POSITION": 20,
            "TEXCOORD_0": 22
          },
          "indices": 23,
          "material": 5,
          "mode": 4
        }
      ]
    },
    {
      "name": "Object_6",
      "primitives": [
        {
          "attributes": {
            "NORMAL": 25,
            "POSITION": 24,
            "TEXCOORD_0": 26
          },
          "indices": 27,
          "material": 6,
          "mode": 4
        }
      ]
    },
    {
      "name": "Object_7",
      "primitives": [
        {
          "attributes": {
            "NORMAL": 29,
            "POSITION": 28,
            "TEXCOORD_0": 30
          },
          "indices": 31,
          "material": 7,
          "mode": 4
        }
      ]
    },
    {
      "name": "Object_8",
      "primitives": [
        {
          "attributes": {
            "NORMAL": 33,
            "POSITION": 32,
            "TEXCOORD_0": 34
          },
          "indices": 35,
          "material": 8,
          "mode": 4
        }
      ]
    },
    {
      "name": "Object_9",
      "primitives": [
        {
          "attributes": {
            "NORMAL": 37,
            "POSITION": 36,
            "TEXCOORD_0": 38
          },
          "indices": 39,
          "material": 9,
          "mode": 4
        }
      ]
    },
    {
      "name": "Object_10",
      "primitives": [
        {
          "attributes": {
            "NORMAL": 41,
            "POSITION": 40,
            "TEXCOORD_0": 42
          },
          "indices": 43,
          "material": 10,
          "mode": 4
        }
      ]
    },
    {
      "name": "Object_11",
      "primitives": [
        {
          "attributes": {
            "NORMAL": 45,
            "POSITION": 44,
            "TEXCOORD_0": 46
          },
          "indices": 47,
          "material": 11,
          "mode": 4
        }
      ]
    },
    {
      "name": "Object_12",
      "primitives": [
        {
          "attributes": {
            "NORMAL": 49,
            "POSITION": 48,
            "TEXCOORD_0": 50
          },
          "indices": 51,
          "material": 12,
          "mode": 4
        }
      ]
    },
    {
      "name": "Object_13",
      "primitives": [
        {
          "attributes": {
            "NORMAL": 53,
            "POSITION": 52,
            "TEXCOORD_0": 54
          },
          "indices": 55,
          "material": 13,
          "mode": 4
        }
      ]
    },
    {
      "name": "Object_14",
      "primitives": [
        {
          "attributes": {
            "NORMAL": 57,
            "POSITION": 56,
            "TEXCOORD_0": 58
          },
          "indices": 59,
          "material": 14,
          "mode": 4
        }
      ]
    },
    {
      "name": "Object_15",
      "primitives": [
        {
          "attributes": {
            "NORMAL": 61,
            "POSITION": 60,
            "TEXCOORD_0": 62
          },
          "indices": 63,
          "material": 15,
          "mode": 4
        }
      ]
    },
    {
      "name": "Object_16",
      "primitives": [
        {
          "attributes": {
            "NORMAL": 65,
            "POSITION": 64,
            "TEXCOORD_0": 66
          },
          "indices": 67,
          "material": 16,
          "mode": 4
        }
      ]
    },
    {
      "name": "Object_17",
      "primitives": [
        {
          "attributes": {
            "NORMAL": 69,
            "POSITION": 68,
            "TEXCOORD_0": 70
          },
          "indices": 71,
          "material": 17,
          "mode": 4
        }
      ]
    },
    {
      "name": "Object_18",
      "primitives": [
        {
          "attributes": {
            "NORMAL": 73,
            "POSITION": 72,
            "TEXCOORD_0": 74
          },
          "indices": 75,
          "material": 18,
          "mode": 4
        }
      ]
    },
    {
      "name": "Object_19",
      "primitives": [
        {
          "attributes": {
            "NORMAL": 77,
            "POSITION": 76,
            "TEXCOORD_0": 78
          },
          "indices": 79,
          "material": 19,
          "mode": 4
        }
      ]
    },
    {
      "name": "Object_20",
      "primitives": [
        {
          "attributes": {
            "NORMAL": 81,
            "POSITION": 80,
            "TEXCOORD_0": 82
          },
          "indices": 83,
          "material": 20,
          "mode": 4
        }
      ]
    },
    {
      "name": "Object_21",
      "primitives": [
        {
          "attributes": {
            "NORMAL": 85,
            "POSITION": 84,
            "TEXCOORD_0": 86
          },
          "indices": 87,
          "material": 21,
          "mode": 4
        }
      ]
    },
    {
      "name": "Object_22",
      "primitives": [
        {
          "attributes": {
            "NORMAL": 89,
            "POSITION": 88,
            "TEXCOORD_0": 90
          },
          "indices": 91,
          "material": 22,
          "mode": 4
        }
      ]
    },
    {
      "name": "Object_23",
      "primitives": [
        {
          "attributes": {
            "NORMAL": 93,
            "POSITION": 92,
            "TEXCOORD_0": 94
          },
          "indices": 95,
          "material": 23,
          "mode": 4
        }
      ]
    },
    {
      "name": "Object_24",
      "primitives": [
        {
          "attributes": {
            "NORMAL": 97,
            "POSITION": 96,
            "TEXCOORD_0": 98
          },
          "indices": 99,
          "material": 24,
          "mode": 4
        }
      ]
    },
    {
      "name": "Object_25",
      "primitives": [
        {
          "attributes": {
            "NORMAL": 101,
            "POSITION": 100,
            "TEXCOORD_0": 102
          },
          "indices": 103,
          "material": 25,
          "mode": 4
        }
      ]
    },
    {
      "name": "Object_26",
      "primitives": [
        {
          "attributes": {
            "NORMAL": 105,
            "POSITION": 104,
            "TEXCOORD_0": 106
          },
          "indices": 107,
          "material": 26,
          "mode": 4
        }
      ]
    }
  ],
  "nodes": [
    {
      "children": [
        1
      ],
      "matrix": [
        1.0,
        0.0,
        0.0,
        0.0,
        0.0,
        2.220446049250313e-16,
        -1.0,
        0.0,
        0.0,
        1.0,
        2.220446049250313e-16,
        0.0,
        0.0,
        0.0,
        0.0,
        1.0
      ],
      "name": "Sketchfab_model"
    },
    {
      "children": [
        2
      ],
      "name": "root"
    },
    {
      "children": [
        3,
        5,
        7,
        9,
        11,
        13,
        15,
        17,
        19,
        21,
        23,
        25,
        27,
        29,
        31,
        33,
        35,
        37,
        39,
        41,
        46,
        48,
        50,
        52,
        54,
        56
      ],
      "matrix": [
        1.0,
        0.0,
        0.0,
        0.0,
        0.0,
        2.220446049250313e-16,
        1.0,
        0.0,
        0.0,
        -1.0,
        2.220446049250313e-16,
        0.0,
        0.0,
        0.0,
        0.0,
        1.0
      ],
      "name": "GLTF_SceneRootNode"
    },
    {
      "children": [
        4
      ],
      "matrix": [
        0.4598293090635602,
        0.0011487828298536893,
        -0.006681182783807297,
        0.0,
        0.006327798299839646,
        0.03546515454960875,
        0.44160577193971173,
        0.0,
        0.0012068194794619329,
        -0.3293369202579407,
        0.02643160259051867,
        0.0,
        0.6746939420700073,
        1.2901350259780884,
        -0.1597524881362915,
        1.0
      ],
      "name": "Plane_15"
    },
    {
      "mesh": 0,
      "name": "Object_4"
    },
    {
      "children": [
        6
      ],
      "matrix": [
        0.09461978822946548,
        0.0,
        0.0,
        0.0,
        0.0,
        0.010684010152047292,
        0.10487789580267781,
        0.0,
        0.0,
        -0.10487789580267781,
        0.010684010152047292,
        0.0,
        0.28122013807296753,
        0.3782806694507599,
        0.021200114861130714,
        1.0
      ],
      "name": "Text_22"
    },
    {
      "mesh": 1,
      "name": "Object_6"
    },
    {
      "children": [
        8
      ],
      "matrix": [
        0.013530530035495758,
        0.0,
        0.0,
        0.0,
        0.0,
        0.056137826293706894,
        0.0,
        0.0,
        0.0,
        0.0,
        0.004771656822413206,
        0.0,
        1.1861859560012817,
        0.5963627099990845,
        -0.04719030112028122,
        1.0
      ],
      "name": "Cube_23"
    },
    {
      "mesh": 2,
      "name": "Object_8"
    },
    {
      "children": [
        10
      ],
      "matrix": [
        -0.0024107600553432496,
        -0.0005287220345202733,
        0.00028405316386706644,
        -0.0,
        -1.057992272729425e-05,
        -2.4206548301109737e-05,
        -0.00013484866721632827,
        -0.0,
        -0.0005688979111349941,
        0.0023876590478573104,
        -0.0003839718196543119,
        -0.0,
        1.2169005870819092,
        0.605461597442627,
        -0.042372480034828186,
        1.0
      ],
      "name": "Cylinder_24"
    },
    {
      "mesh": 3,
      "name": "Object_10"
    },
    {
      "children": [
        12
      ],
      "matrix": [
        8.832836151123047,
        0.0,
        0.0,
        0.0,
        0.0,
        0.7781165432340884,
        8.722344820393241,
        0.0,
        0.0,
        -10.327303960024349,
        0.9212942418320454,
        0.0,
        0.14450275897979736,
        0.8419983386993408,
        -0.1325034201145172,
        1.0
      ],
      "name": "Curve.015_26"
    },
    {
      "mesh": 4,
      "name": "Object_12"
    },
    {
      "children": [
        14
      ],
      "matrix": [
        6.5537261962890625,
        0.0,
        0.0,
        0.0,
        0.0,
        0.5823423811962253,
        6.5278024178882905,
        0.0,
        0.0,
        -6.5278024178882905,
        0.5823423811962253,
        0.0,
        0.25730156898498535,
        0.9845688939094543,
        -0.10688634216785431,
        1.0
      ],
      "name": "Curve.016_27"
    },
    {
      "mesh": 5,
      "name": "Object_14"
    },
    {
      "children": [
        16
      ],
      "matrix": [
        7.380315780639648,
        0.0,
        0.0,
        0.0,
        0.0,
        0.6719661776466437,
        7.53244582709301,
        0.0,
        0.0,
        -7.53244582709301,
        0.6719661776466437,
        0.0,
        0.23153071105480194,
        0.9262242913246155,
        -0.09658880531787872,
        1.0
      ],
      "name": "Curve.017_28"
    },
    {
      "mesh": 6,
      "name": "Object_16"
    },
    {
      "children": [
        18
      ],
      "matrix": [
        7.827056884765625,
        0.0,
        0.0,
        0.0,
        0.0,
        0.6948495008602005,
        7.788957833476487,
        0.0,
        0.0,
        -6.146910245878352,
        0.5483631581395593,
        0.0,
        0.20649296045303345,
        0.9773286581039429,
        -0.11182783544063568,
        1.0
      ],
      "name": "Curve.023_34"
    },
    {
      "mesh": 7,
      "name": "Object_18"
    },
    {
      "children": [
        20
      ],
      "matrix": [
        8.468510761771135,
        0.11371134901244197,
        -0.11844134328880099,
        0.0,
        0.10711517276375546,
        0.7037887745657906,
        8.334376636269235,
        0.0,
        0.12173079748355352,
        -8.334319834265953,
        0.7022194679954,
        0.0,
        0.17559003829956055,
        0.9124260544776917,
        -0.11603400856256485,
        1.0
      ],
      "name": "Curve.025_36"
    },
    {
      "mesh": 8,
      "name": "Object_20"
    },
    {
      "children": [
        22
      ],
      "matrix": [
        11.378105163574219,
        0.0,
        0.0,
        0.0,
        0.0,
        1.0110207012018158,
        11.333098175481217,
        0.0,
        0.0,
        -11.333098175481217,
        1.0110207012018158,
        0.0,
        0.10465281456708908,
        0.7180242538452148,
        -0.08723671734333038,
        1.0
      ],
      "name": "Curve.026_37"
    },
    {
      "mesh": 9,
      "name": "Object_22"
    },
    {
      "children": [
        24
      ],
      "matrix": [
        7.380315780639648,
        0.0,
        0.0,
        0.0,
        0.0,
        0.6719661776466437,
        7.53244582709301,
        0.0,
        0.0,
        -7.53244582709301,
        0.6719661776466437,
        0.0,
        0.6773528456687927,
        0.9296592473983765,
        -0.09931449592113495,
        1.0
      ],
      "name": "Curve.027_38"
    },
    {
      "mesh": 10,
      "name": "Object_24"
    },
    {
      "children": [
        26
      ],
      "matrix": [
        6.5537261962890625,
        0.0,
        0.0,
        0.0,
        0.0,
        0.5823423811962253,
        6.5278024178882905,
        0.0,
        0.0,
        -6.5278024178882905,
        0.5823423811962253,
        0.0,
        0.7001766562461853,
        0.9862076640129089,
        -0.10857950150966644,
        1.0
      ],
      "name": "Curve.028_39"
    },
    {
      "mesh": 11,
      "name": "Object_26"
    },
    {
      "children": [
        28
      ],
      "matrix": [
        0.9299080599940606,
        -0.010338314755289105,
        0.008022109395561666,
        0.0,
        -0.007209794206375558,
        0.07100880875630175,
        0.9272570083428883,
        0.0,
        -0.010920339587078297,
        -0.9272275829429114,
        0.07092164536690815,
        0.0,
        0.16548967361450195,
        0.3613845407962799,
        0.0061323512345552444,
        1.0
      ],
      "name": "path5.002_40"
    },
    {
      "mesh": 12,
      "name": "Object_28"
    },
    {
      "children": [
        30
      ],
      "matrix": [
        0.9299080599940606,
        -0.010338314755289105,
        0.008022109395561666,
        0.0,
        -0.007209794206375558,
        0.07100880875630175,
        0.9272570083428883,
        0.0,
        -0.010920339587078297,
        -0.9272275829429114,
        0.07092164536690815,
        0.0,
        0.16548967361450195,
        0.3613845407962799,
        0.0061323512345552444,
        1.0
      ],
      "name": "path4.002_41"
    },
    {
      "mesh": 13,
      "name": "Object_30"
    },
    {
      "children": [
        32
      ],
      "matrix": [
        0.9299080599940606,
        -0.010338314755289105,
        0.008022109395561666,
        0.0,
        -0.007209794206375558,
        0.07100880875630175,
        0.9272570083428883,
        0.0,
        -0.010920339587078297,
        -0.9272275829429114,
        0.07092164536690815,
        0.0,
        0.16548967361450195,
        0.3613845407962799,
        0.0061323512345552444,
        1.0
      ],
      "name": "path3.002_42"
    },
    {
      "mesh": 14,
      "name": "Object_32"
    },
    {
      "children": [
        34
      ],
      "matrix": [
        0.9299080599940606,
        -0.010338314755289105,
        0.008022109395561666,
        0.0,
        -0.007209794206375558,
        0.07100880875630175,
        0.9272570083428883,
        0.0,
        -0.010920339587078297,
        -0.9272275829429114,
        0.07092164536690815,
        0.0,
        0.16548967361450195,
        0.3613845407962799,
        0.0061323512345552444,
        1.0
      ],
      "name": "path2.002_43"
    },
    {
      "mesh": 15,
      "name": "Object_34"
    },
    {
      "children": [
        36
      ],
      "matrix": [
        0.9299080599940606,
        -0.010338314755289105,
        0.008022109395561666,
        0.0,
        -0.007209794206375558,
        0.07100880875630175,
        0.9272570083428883,
        0.0,
        -0.010920339587078297,
        -0.9272275829429114,
        0.07092164536690815,
        0.0,
        0.16548967361450195,
        0.3613845407962799,
        0.0061323512345552444,
        1.0
      ],
      "name": "path1.002_44"
    },
    {
      "mesh": 16,
      "name": "Object_36"
    },
    {
      "children": [
        38
      ],
      "matrix": [
        0.9299080599940606,
        -0.010338314755289105,
        0.008022109395561666,
        0.0,
        -0.007209794206375558,
        0.07100880875630175,
        0.9272570083428883,
        0.0,
        -0.010920339587078297,
        -0.9272275829429114,
        0.07092164536690815,
        0.0,
        0.16548967361450195,
        0.3613845407962799,
        0.0061323512345552444,
        1.0
      ],
      "name": "path0.002_45"
    },
    {
      "mesh": 17,
      "name": "Object_38"
    },
    {
      "children": [
        40
      ],
      "matrix": [
        11.378105163574219,
        0.0,
        0.0,
        0.0,
        0.0,
        1.0110207012018158,
        11.333098175481217,
        0.0,
        0.0,
        -11.333098175481217,
        1.0110207012018158,
        0.0,
        0.5487948656082153,
        0.7180242538452148,
        -0.08723671734333038,
        1.0
      ],
      "name": "Curve.029_46"
    },
    {
      "mesh": 18,
      "name": "Object_40"
    },
    {
      "children": [
        42,
        44
      ],
      "matrix": [
        0.005584409460425377,
        0.0,
        -0.0,
        0.0,
        -0.0,
        0.0,
        -0.005584409460425377,
        0.0,
        0.0,
        0.005584409460425377,
        0.0,
        0.0,
        0.0,
        0.0,
        0.0,
        1.0
      ],
      "name": "GLTF Converted Scene_51"
    },
    {
      "children": [
        43
      ],
      "matrix": [
        1.0,
        0.0,
        0.0,
        0.0,
        0.0,
        0.9999998296450169,
        0.0005837036381617722,
        0.0,
        0.0,
        -0.0005837036381617722,
        0.9999998296450169,
        0.0,
        -0.9936823844909668,
        -4.592689514160156,
        0.6551685333251953,
        1.0
      ],
      "name": "material_0_0_49"
    },
    {
      "mesh": 19,
      "name": "Object_43"
    },
    {
      "children": [
        45
      ],
      "matrix": [
        1.0,
        0.0,
        0.0,
        0.0,
        0.0,
        0.9999998296450169,
        0.0005837036381617722,
        0.0,
        0.0,
        -0.0005837036381617722,
        0.9999998296450169,
        0.0,
        -0.9936823844909668,
        -4.592689514160156,
        0.6551685333251953,
        1.0
      ],
      "name": "material_3_0_50"
    },
    {
      "mesh": 20,
      "name": "Object_45"
    },
    {
      "children": [
        47
      ],
      "matrix": [
        0.971419419676363,
        -0.010799820059715007,
        0.008380218635449388,
        0.0,
        -0.007531643396546142,
        0.07417868114641572,
        0.9686502726542678,
        0.0,
        -0.011407827376298205,
        -0.9686193474487891,
        0.074087612490189,
        0.0,
        0.1637808233499527,
        0.35937511920928955,
        0.00574756134301424,
        1.0
      ],
      "name": "path0.003_58"
    },
    {
      "mesh": 21,
      "name": "Object_47"
    },
    {
      "children": [
        49
      ],
      "matrix": [
        0.971419419676363,
        -0.010799820059715007,
        0.008380218635449388,
        0.0,
        -0.007531643396546142,
        0.07417868114641572,
        0.9686502726542678,
        0.0,
        -0.011407827376298205,
        -0.9686193474487891,
        0.074087612490189,
        0.0,
        0.1637808233499527,
        0.35937511920928955,
        0.00574756134301424,
        1.0
      ],
      "name": "path1.003_59"
    },
    {
      "mesh": 22,
      "name": "Object_49"
    },
    {
      "children": [
        51
      ],
      "matrix": [
        0.971419419676363,
        -0.010799820059715007,
        0.008380218635449388,
        0.0,
        -0.007531643396546142,
        0.07417868114641572,
        0.9686502726542678,
        0.0,
        -0.011407827376298205,
        -0.9686193474487891,
        0.074087612490189,
        0.0,
        0.1637808233499527,
        0.35937511920928955,
        0.00574756134301424,
        1.0
      ],
      "name": "path2.003_60"
    },
    {
      "mesh": 23,
      "name": "Object_51"
    },
    {
      "children": [
        53
      ],
      "matrix": [
        0.971419419676363,
        -0.010799820059715007,
        0.008380218635449388,
        0.0,
        -0.007531643396546142,
        0.07417868114641572,
        0.9686502726542678,
        0.0,
        -0.011407827376298205,
        -0.9686193474487891,
        0.074087612490189,
        0.0,
        0.1637808233499527,
        0.35937511920928955,
        0.00574756134301424,
        1.0
      ],
      "name": "path3.003_61"
    },
    {
      "mesh": 24,
      "name": "Object_53"
    },
    {
      "children": [
        55
      ],
      "matrix": [
        0.971419419676363,
        -0.010799820059715007,
        0.008380218635449388,
        0.0,
        -0.007531643396546142,
        0.07417868114641572,
        0.9686502726542678,
        0.0,
        -0.011407827376298205,
        -0.9686193474487891,
        0.074087612490189,
        0.0,
        0.1637808233499527,
        0.35937511920928955,
        0.00574756134301424,
        1.0
      ],
      "name": "path4.003_62"
    },
    {
      "mesh": 25,
      "name": "Object_55"
    },
    {
      "children": [
        57
      ],
      "matrix": [
        0.971419419676363,
        -0.010799820059715007,
        0.008380218635449388,
        0.0,
        -0.007531643396546142,
        0.07417868114641572,
        0.9686502726542678,
        0.0,
        -0.011407827376298205,
        -0.9686193474487891,
        0.074087612490189,
        0.0,
        0.1637808233499527,
        0.35937511920928955,
        0.00574756134301424,
        1.0
      ],
      "name": "path5.003_63"
    },
    {
      "mesh": 26,
      "name": "Object_57"
    }
  ],
  "samplers": [
    {
      "magFilter": 9729,
      "minFilter": 9987,
      "wrapS": 10497,
      "wrapT": 10497
    }
  ],
  "scene": 0,
  "scenes": [
    {
      "name": "Sketchfab_Scene",
      "nodes": [
        0
      ]
    }
  ],
  "textures": [
    {
      "sampler": 0,
      "source": 0
    }
  ]
}
