{
  "accessors": [
    {
      "bufferView": 2,
      "componentType": 5126,
      "count": 1967,
      "max": [
        5.734529972076416,
        7.19543981552124,
        0.0
      ],
      "min": [
        -5.753489971160889,
        -8.306480407714844,
        -11.679699897766113
      ],
      "type": "VEC3"
    },
    {
      "bufferView": 2,
      "byteOffset": 23604,
      "componentType": 5126,
      "count": 1967,
      "max": [
        1.0,
        1.0,
        1.0
      ],
      "min": [
        -1.0,
        -1.0,
        -1.0
      ],
      "type": "VEC3"
    },
    {
      "bufferView": 1,
      "componentType": 5126,
      "count": 1967,
      "max": [
        0.940060019493103,
        0.9997900128364563
      ],
      "min": [
        0.0002099999983329326,
        0.0002099999983329326
      ],
      "type": "VEC2"
    },
    {
      "bufferView": 0,
      "componentType": 5125,
      "count": 4239,
      "type": "SCALAR"
    },
    {
      "bufferView": 2,
      "byteOffset": 47208,
      "componentType": 5126,
      "count": 1800,
      "max": [
        10.998180389404297,
        9.68185043334961,
        0.5348399877548218
      ],
      "min": [
        -10.998180389404297,
        -9.68185043334961,
        -0.9977200031280518
      ],
      "type": "VEC3"
    },
    {
      "bufferView": 2,
      "byteOffset": 68808,
      "componentType": 5126,
      "count": 1800,
      "max": [
        0.9999805092811584,
        0.9999805092811584,
        1.0
      ],
      "min": [
        -0.9999805092811584,
        -0.9999805092811584,
        -1.0
      ],
      "type": "VEC3"
    },
    {
      "bufferView": 0,
      "byteOffset": 16956,
      "componentType": 5125,
      "count": 10752,
      "type": "SCALAR"
    },
    {
      "bufferView": 2,
      "byteOffset": 90408,
      "componentType": 5126,
      "count": 24,
      "max": [
        1.0,
        1.0,
        1.0
      ],
      "min": [
        -1.0,
        -1.0,
        -1.0
      ],
      "type": "VEC3"
    },
    {
      "bufferView": 2,
      "byteOffset": 90696,
      "componentType": 5126,
      "count": 24,
      "max": [
        1.0,
        1.0,
        1.0
      ],
      "min": [
        -1.0,
        -1.0,
        -1.0
      ],
      "type": "VEC3"
    },
    {
      "bufferView": 1,
      "byteOffset": 15736,
      "componentType": 5126,
      "count": 24,
      "max": [
        0.7947499752044678,
        0.9498400092124939
      ],
      "min": [
        -0.24007999897003174,
        0.023840000852942467
      ],
      "type": "VEC2"
    },
    {
      "bufferView": 0,
      "byteOffset": 59964,
      "componentType": 5125,
      "count": 36,
      "type": "SCALAR"
    },
    {
      "bufferView": 2,
      "byteOffset": 90984,
      "componentType": 5126,
      "count": 25,
      "max": [
        1.0,
        1.0,
        0.15313999354839325
      ],
      "min": [
        -1.0,
        -1.0,
        0.004019999876618385
      ],
      "type": "VEC3"
    },
    {
      "bufferView": 2,
      "byteOffset": 91284,
      "componentType": 5126,
      "count": 25,
      "max": [
        0.11786237359046936,
        0.03562019020318985,
        1.0
      ],
      "min": [
        -0.11786237359046936,
        -0.03568011894822121,
        0.9924131035804749
      ],
      "type": "VEC3"
    },
    {
      "bufferView": 1,
      "byteOffset": 15928,
      "componentType": 5126,
      "count": 25,
      "max": [
        1.0010499954223633,
        0.9944300055503845
      ],
      "min": [
        -0.0010499999625608325,
        -0.0010400000028312206
      ],
      "type": "VEC2"
    },
    {
      "bufferView": 0,
      "byteOffset": 60108,
      "componentType": 5125,
      "count": 96,
      "type": "SCALAR"
    }
  ],
  "asset": {
    "extras": {
      "author": "Brian Seoane (https://sketchfab.com/dgrafi.seoane)",
      "license": "CC-BY-4.0 (http://creativecommons.org/licenses/by/4.0/)",
      "source": "https://sketchfab.com/3d-models/macintosh-f58b4bb7fb62402ea56782a46b4b481b",
      "title": "Macintosh"
    },
    "generator": "Sketchfab-12.67.0",
    "version": "2.0"
  },
  "bufferViews": [
    {
      "buffer": 0,
      "byteLength": 60492,
      "name": "floatBufferViews",
      "target": 34963
    },
    {
      "buffer": 0,
      "byteLength": 16128,
      "byteOffset": 60492,
      "byteStride": 8,
      "name": "floatBufferViews",
      "target": 34962
    },
    {
      "buffer": 0,
      "byteLength": 91584,
      "byteOffset": 76620,
      "byteStride": 12,
      "name": "floatBufferViews",
      "target": 34962
    }
  ],
  "buffers": [
    {
      "byteLength": 168204,
      "uri": "scene.bin"
    }
  ],
  "images": [
    {
      "uri": "textures/Material.006_baseColor.jpeg"
    },
    {
      "uri": "textures/Material.001_baseColor.png"
    },
    {
      "uri": "textures/CremitaMac_baseColor.png"
    }
  ],
  "materials": [
    {
      "doubleSided": true,
      "name": "Material.006",
      "pbrMetallicRoughness": {
        "baseColorTexture": {
          "index": 0
        },
        "metallicFactor": 0.0,
        "roughnessFactor": 0.6
      }
    },
    {
      "doubleSided": true,
      "name": "Material.001",
      "pbrMetallicRoughness": {
        "baseColorTexture": {
          "index": 1
        },
        "metallicFactor": 0.0,
        "roughnessFactor": 0.6
      }
    },
    {
      "doubleSided": true,
      "name": "Material.002",
      "pbrMetallicRoughness": {
        "metallicFactor": 0.0,
        "roughnessFactor": 0.6
      }
    },
    {
      "doubleSided": true,
      "name": "CremitaMac",
      "pbrMetallicRoughness": {
        "baseColorTexture": {
          "index": 2
        },
        "metallicFactor": 0.0,
        "roughnessFactor": 0.6
      }
    }
  ],
  "meshes": [
    {
      "name": "Plane_0",
      "primitives": [
        {
          "attributes": {
            "NORMAL": 1,
            "POSITION": 0,
            "TEXCOORD_0": 2
          },
          "indices": 3,
          "material": 3,
          "mode": 4
        }
      ]
    },
    {
      "name": "Cylinder_0",
      "primitives": [
        {
          "attributes": {
            "NORMAL": 5,
            "POSITION": 4
          },
          "indices": 6,
          "material": 2,
          "mode": 4
        }
      ]
    },
    {
      "name": "Cube_0",
      "primitives": [
        {
          "attributes": {
            "NORMAL": 8,
            "POSITION": 7,
            "TEXCOORD_0": 9
          },
          "indices": 10,
          "material": 1,
          "mode": 4
        }
      ]
    },
    {
      "name": "Plane.001_0",
      "primitives": [
        {
          "attributes": {
            "NORMAL": 12,
            "POSITION": 11,
            "TEXCOORD_0": 13
          },
          "indices": 14,
          "material": 0,
          "mode": 4
        }
      ]
    }
  ],
  "nodes": [
    {
      "children": [
        1
      ],
      "matrix": [
        0.07074345648288727,
        0.0,
        0.0,
        0.0,
        0.0,
        1.5708202845773848e-17,
        -0.07074345648288727,
        0.0,
        0.0,
        0.07074345648288727,
        1.5708202845773848e-17,
        0.0,
        -0.029970068484544754,
        4.3605454647998394e-18,
        -0.019638150930404663,
        1.0
      ],
      "name": "Sketchfab_model"
    },
    {
      "children": [
        2,
        4,
        6,
        8,
        10
      ],
      "name": "Root"
    },
    {
      "children": [
        3
      ],
      "matrix": [
        0.39275000000000004,
        0.16663000000000003,
        0.0,
        0.0,
        0.0,
        -0.0,
        0.42664,
        0.0,
        0.16663000000000003,
        -0.39275000000000004,
        -0.0,
        0.0,
        0.23536,
        0.24594000000000005,
        0.0,
        1.0
      ],
      "name": "Plane"
    },
    {
      "mesh": 0,
      "name": "Plane_0"
    },
    {
      "children": [
        5
      ],
      "matrix": [
        0.17616,
        0.07474000000000001,
        0.0,
        0.0,
        -0.07474000000000001,
        0.17616,
        0.0,
        0.0,
        0.0,
        0.0,
        0.08058000000000001,
        0.0,
        -0.83543,
        2.8072,
        -3.5166599999999995,
        1.0
      ],
      "name": "Cylinder"
    },
    {
      "mesh": 1,
      "name": "Cylinder_0"
    },
    {
      "children": [
        7
      ],
      "matrix": [
        0.14678000000000002,
        0.06227000000000001,
        0.0,
        0.0,
        -0.007230000000000001,
        0.017040000000000003,
        0.0,
        0.0,
        0.0,
        0.0,
        0.15944000000000005,
        0.0,
        -1.55237,
        -0.51027,
        -2.05658,
        1.0
      ],
      "name": "Cube"
    },
    {
      "mesh": 2,
      "name": "Cube_0"
    },
    {
      "children": [
        9
      ],
      "matrix": [
        1.8501100000000001,
        0.78495,
        0.0,
        0.0,
        0.0,
        -0.0,
        1.52551,
        0.0,
        0.3905700000000001,
        -0.92057,
        -0.0,
        0.0,
        0.15244000000000005,
        0.6096200000000002,
        0.84638,
        1.0
      ],
      "name": "Plane.001"
    },
    {
      "mesh": 3,
      "name": "Plane.001_0"
    },
    {
      "children": [
        11
      ],
      "matrix": [
        -0.81818,
        0.049760000000000006,
        0.57281,
        0.0,
        -0.46983,
        -0.6321300000000001,
        -0.6161800000000001,
        0.0,
        0.33143000000000006,
        -0.77327,
        0.54057,
        0.0,
        -8.69364,
        -13.9562,
        8.863090000000001,
        1.0
      ],
      "name": "Lamp.002"
    },
    {
      "name": "Lamp.002"
    }
  ],
  "samplers": [
    {
      "magFilter": 9729,
      "minFilter": 9987,
      "wrapS": 10497,
      "wrapT": 10497
    }
  ],
  "scene": 0,
  "scenes": [
    {
      "name": "Sketchfab_Scene",
      "nodes": [
        0
      ]
    }
  ],
  "textures": [
    {
      "sampler": 0,
      "source": 0
    },
    {
      "sampler": 0,
      "source": 1
    },
    {
      "sampler": 0,
      "source": 2
    }
  ]
}
